<?xml version="1.0" encoding="iso-8859-1"?>
<!-- Generator: Adobe Illustrator 19.0.0, SVG Export Plug-In . SVG Version: 6.00 Build 0)  -->
<svg version="1.1" id="Capa_1" xmlns="http://www.w3.org/2000/svg" xmlns:xlink="http://www.w3.org/1999/xlink" x="0px" y="0px"
	 viewBox="0 0 512 512" style="enable-background:new 0 0 512 512;" xml:space="preserve">
<path style="fill:#FFF5CB;" d="M366,512H146c-30.327,0-55-24.673-55-55V55c0-30.327,24.673-55,55-55h220c30.327,0,55,24.673,55,55
	v402C421,487.327,396.327,512,366,512z"/>
<path style="fill:#FFEC97;" d="M366,0H256v512h110c30.327,0,55-24.673,55-55V55C421,24.673,396.327,0,366,0z"/>
<path style="fill:#FFDBA9;" d="M309,80H203c-19.299,0-35-15.701-35-35V0h176v45C344,64.299,328.299,80,309,80z"/>
<path style="fill:#6B77E8;" d="M177.75,160.85v23.1c0,2.801-0.626,5.051-1.875,6.75c-1.251,1.702-2.677,3.25-4.274,4.65
	c1.5,1.401,2.898,2.977,4.199,4.725c1.299,1.75,1.95,3.975,1.95,6.675v24.75H186V254h-30.3c-0.6,0-1.326-0.276-2.175-0.825
	c-0.851-0.551-1.275-1.777-1.275-3.675v-33c0-3.199-0.975-5.798-2.925-7.8c-1.95-2-3.975-3.249-6.075-3.75v-19.5
	c0.999,0,2.049-0.324,3.15-0.975c1.099-0.649,2.074-1.5,2.925-2.55c0.849-1.05,1.549-2.25,2.1-3.6
	c0.549-1.35,0.825-2.724,0.825-4.125v-31.35c0-1.8,0.425-3,1.275-3.6c0.849-0.6,1.575-0.9,2.175-0.9H186v22.5L177.75,160.85
	L177.75,160.85z"/>
<path style="fill:#3A4DE2;" d="M326,160.85v-22.5h30.3c0.601,0,1.324,0.3,2.175,0.9c0.849,0.6,1.275,1.8,1.275,3.6v31.35
	c0,1.401,0.274,2.775,0.825,4.125c0.548,1.35,1.249,2.55,2.1,3.6c0.849,1.05,1.8,1.9,2.851,2.55c1.05,0.651,2.123,0.975,3.225,0.975
	v19.5c-2.1,0.501-4.125,1.75-6.075,3.75c-1.95,2.001-2.925,4.601-2.925,7.8v33c0,1.898-0.427,3.125-1.275,3.675
	c-0.851,0.548-1.574,0.825-2.175,0.825H326v-22.5h8.25v-24.75c0-2.7,0.649-4.924,1.95-6.675c1.298-1.749,2.7-3.324,4.2-4.725
	c-1.602-1.399-3.026-2.948-4.275-4.65c-1.252-1.699-1.875-3.949-1.875-6.75v-23.1L326,160.85L326,160.85z"/>
<rect x="204" y="181" style="fill:#FFDB2D;" width="104" height="30"/>
<g>
	<rect x="204" y="121" style="fill:#FF52A0;" width="84" height="30"/>
	<rect x="204" y="241" style="fill:#FF52A0;" width="64" height="30"/>
</g>
<path style="fill:#C3C8F6;" d="M301,386c0-2.808-0.271-5.552-0.766-8.218l15.228-8.791l-15-25.98l-15.249,8.804
	c-4.155-3.556-8.959-6.37-14.213-8.233V326h-30v17.58c-5.254,1.863-10.058,4.677-14.213,8.233l-15.249-8.804l-15,25.98l15.228,8.791
	c-0.495,2.668-0.766,5.412-0.766,8.22s0.271,5.552,0.766,8.218l-15.228,8.791l15,25.98l15.249-8.804
	c4.155,3.556,8.959,6.37,14.213,8.233V446h30v-17.58c5.254-1.863,10.058-4.677,14.213-8.233l15.249,8.804l15-25.98l-15.228-8.791
	C300.729,391.552,301,388.808,301,386z M256,401c-8.271,0-15-6.729-15-15s6.729-15,15-15s15,6.729,15,15S264.271,401,256,401z"/>
<path style="fill:#FFC473;" d="M256,0v80h53c19.299,0,35-15.701,35-35V0H256z"/>
<path style="fill:#979FEF;" d="M301,386c0-2.808-0.271-5.552-0.766-8.218l15.228-8.791l-15-25.98l-15.249,8.804
	c-4.155-3.556-8.959-6.37-14.213-8.233V326h-15v45c8.271,0,15,6.729,15,15s-6.729,15-15,15v45h15v-17.58
	c5.254-1.863,10.058-4.677,14.213-8.233l15.249,8.804l15-25.98l-15.228-8.791C300.729,391.552,301,388.808,301,386z"/>
<rect x="256" y="121" style="fill:#FF318E;" width="32" height="30"/>
<rect x="256" y="181" style="fill:#FFB64C;" width="52" height="30"/>
<rect x="256" y="241" style="fill:#FF318E;" width="12" height="30"/>
<g>
</g>
<g>
</g>
<g>
</g>
<g>
</g>
<g>
</g>
<g>
</g>
<g>
</g>
<g>
</g>
<g>
</g>
<g>
</g>
<g>
</g>
<g>
</g>
<g>
</g>
<g>
</g>
<g>
</g>
</svg>
