<svg id="Layer_1" enable-background="new 0 0 513.073 513.073" height="512" viewBox="0 0 513.073 513.073" width="512" xmlns="http://www.w3.org/2000/svg"><g><g><path d="m256.537 3.073c-98.131 0-158.58 55.352-158.747 55.445 0 0-2.513 3.137-2.983 5.222-3.818 16.948-7.385 39.663-7.385 56.238 0 140.833 118.763 254.972 259.596 254.972 54.231 0 114.568-25.992 154.949-57.243.903-.699 3.769-5.396 3.769-5.396.178-1.087 5.8-23.477 5.8-54.239.001-140.831-114.167-254.999-254.999-254.999z" fill="#daf1f4"/><path d="m346.995 367.752c-140.833 0-255-114.167-255-255 0-18.615 2.007-36.753 5.795-54.234-58.645 46.72-96.253 118.747-96.253 199.555 0 75.134 32.494 142.678 84.196 189.346l341.929-.302c38.601-34.935 66.552-81.62 78.074-134.805-43.559 34.695-98.724 55.44-158.741 55.44z" fill="#b1e4f9"/></g><g><path d="m368.157 93.052c0-36.774-29.811-66.584-66.584-66.584h-97.826c-36.773 0-66.584 29.811-66.584 66.584v5.619c0 21.288-7.188 42.072-20.863 58.388-13.436 16.03-21.526 36.693-21.526 59.246 0 50.972 41.321 92.293 92.293 92.293l133.541-2.833c50.972 0 92.293-41.321 92.293-92.293 0-22.961-8.385-43.962-22.26-60.11-14.435-16.804-22.484-38.157-22.484-60.31z" fill="#5a2d19"/><g><g><path d="m300.9 128.18h-96.47c-21.632 0-39.169-4.256-39.169-25.888v-63.123c.001-21.633 17.537-39.169 39.169-39.169h96.47c21.632 0 39.169 17.536 39.169 39.169v63.123c0 21.632-17.537 25.888-39.169 25.888z" fill="#5a2d19"/></g></g><path d="m352.282 331.524-127.786.23c-2.97.001-6.031.003-9.134.003-40.943.012-74.314 33.005-74.616 73.947-.003.396-.004.793-.004 1.191h286.911c0-41.627-33.745-75.371-75.371-75.371z" fill="#ffbe82"/><g><path d="m224.496 331.754c1.808-.157 2.757-.213 6.608-.23h-41.936c-29.913.014-29.93-.096-33.676.23-39 2.877-69.754 35.406-69.754 75.141h69.004c.001-39.735 30.755-72.264 69.754-75.141z" fill="#ff965a"/></g><g><g><path d="m289.517 343.643c0 18.127-14.695 32.822-32.822 32.822-18.127 0-32.822-14.695-32.822-32.822v-73.516h65.644z" fill="#ffbe82"/></g></g><g><g><path d="m345.407 120.759c-.217-21.836-17.979-39.423-39.816-39.423h-47.307c-26.36 0-50.317 10.278-68.09 27.042v135.253c0 33.989 27.308 61.876 61.296 62.131.238.002.476.003.714.003 51.973 0 94.105-42.132 94.105-94.105z" fill="#ffbe82"/></g></g><g><g><path d="m368.157 178.257c0 12.066-9.782 21.848-21.848 21.848v-55.387c12.066 0 21.848 9.782 21.848 21.848z" fill="#ff965a"/></g></g><g><g><path d="m137.173 178.257c0 12.066 9.782 21.848 21.848 21.848v-55.387c-12.066 0-21.848 9.782-21.848 21.848z" fill="#ff965a"/></g></g><g><g><path d="m212.865 176.579v8.004c0 4.286 3.475 7.761 7.761 7.761s7.761-3.475 7.761-7.761v-8.004z" fill="#ff965a"/></g></g><g><g><path d="m276.247 176.579v8.004c0 4.286 3.475 7.761 7.761 7.761s7.761-3.475 7.761-7.761v-8.004z" fill="#ff965a"/></g></g><g><g><path d="m220.626 185.876c-4.286 0-7.761-3.475-7.761-7.761v-5.724l3.115-4.68-3.115-4.68v-6.142c0-4.286 3.475-7.761 7.761-7.761s7.761 3.475 7.761 7.761v21.226c0 4.286-3.475 7.761-7.761 7.761z" fill="#373c41"/></g></g><g><g><path d="m284.008 185.876c-4.286 0-7.761-3.475-7.761-7.761v-7.261l3.115-4.68-3.115-4.68v-4.605c0-4.286 3.475-7.761 7.761-7.761s7.761 3.475 7.761 7.761v21.226c0 4.286-3.475 7.761-7.761 7.761z" fill="#373c41"/></g></g><g><g><path d="m240.551 199.176c-1.929 6.799 1.577 14.204 8.282 16.437 1.349.449 2.793.692 4.293.692s2.944-.243 4.293-.692c6.705-2.232 10.212-9.638 8.282-16.437l-9.41-33.159c-.905-3.189-5.425-3.189-6.33 0z" fill="#ff965a"/></g></g><path d="m260.895 81.502c-56.228-.108-101.874 45.433-101.874 101.662v29.418c0 57.276 51.403 101.584 108.996 91.834-43.968-7.48-77.451-45.735-77.451-91.834.024-41.265-.004-60.417-.008-69.75-.003-7.388 6.038-13.446 13.426-13.462h.01 45.166c26.284 0 47.592-21.308 47.592-47.592 0 0-6.865-.22-35.857-.276z" fill="#ff965a"/><path d="m207.155 43.727c-26.584 0-48.134 21.55-48.134 48.134v31.041 60.261c6.893 0 12.481-5.588 12.481-12.481v-15.289c0-17.945 14.547-32.491 32.491-32.491h45.166c26.284 0 47.592-21.308 47.592-47.592v-31.583z" fill="#5a2d19"/><path d="m295.065 81.336c21.29 0 38.763 18.225 38.763 39.515v49.832c0 6.893 5.588 12.481 12.481 12.481v-105.518z" fill="#5a2d19"/><path d="m282.816 229.474h-8.151l-21.467 4.457-21.467-4.457h-7.211c-2.419 0-4.352 2.111-4.029 4.509.617 4.586 2.163 8.878 4.443 12.68l43.467 12.881c9.817-4.819 16.928-14.303 18.444-25.561.323-2.397-1.61-4.509-4.029-4.509z" fill="#a51f6b"/><path d="m224.938 246.661c5.85 9.758 16.526 16.291 28.73 16.291 5.287 0 10.285-1.23 14.731-3.412-1.911-11.989-12.294-21.152-24.821-21.152-7.393 0-14.04 3.192-18.64 8.273z" fill="#dd544f"/><g fill="#fff"><path d="m274.665 233.665c0 2.608-2.114 4.722-4.722 4.722h-33.489c-2.608 0-4.722-2.114-4.722-4.722v-4.191h42.934v4.191z"/><path d="m215.98 175.507c-1.721 0-3.115-1.395-3.115-3.115v-9.36c0-1.721 1.395-3.115 3.115-3.115 1.721 0 3.115 1.395 3.115 3.115v9.36c0 1.72-1.394 3.115-3.115 3.115z"/><path d="m279.362 173.97c-1.721 0-3.115-1.395-3.115-3.115v-9.36c0-1.721 1.395-3.115 3.115-3.115 1.72 0 3.115 1.395 3.115 3.115v9.36c0 1.72-1.394 3.115-3.115 3.115z"/></g><path d="m319.466 28.778c5.067 0 9.44 17.937 9.44 17.937s14.081-11.941 18.181-8.963c4.1 2.979-2.906 20.06-2.906 20.06s18.41-1.384 19.976 3.435-14.142 14.521-14.142 14.521 15.708 9.702 14.142 14.521-19.976 3.435-19.976 3.435 7.005 17.082 2.906 20.06c-4.1 2.979-18.181-8.963-18.181-8.963s-4.373 17.937-9.44 17.937-9.44-17.937-9.44-17.937-14.081 11.941-18.181 8.963c-4.1-2.979 2.906-20.06 2.906-20.06s-18.41 1.384-19.976-3.435 14.142-14.521 14.142-14.521-15.708-9.702-14.142-14.521 19.976-3.435 19.976-3.435-7.005-17.082-2.906-20.06c4.1-2.979 18.181 8.963 18.181 8.963s4.373-17.937 9.44-17.937z" fill="#ffc305"/><circle cx="319.466" cy="75.769" fill="#fff" r="17.397"/><path d="m340.069 86.173c5.637 0 5.676 21.823 5.676 21.823s10.176-19.305 15.168-16.685c4.991 2.62-5.115 21.961-5.115 21.961s17.982-12.364 21.184-7.725-14.735 17.068-14.735 17.068 21.668-2.592 22.348 3.005c.679 5.596-20.979 8.265-20.979 8.265s20.391 7.775 18.392 13.046-22.417-2.431-22.417-2.431 14.442 16.36 10.222 20.099c-4.22 3.738-18.72-12.57-18.72-12.57s5.184 21.198-.289 22.547-10.734-19.83-10.734-19.83-5.261 21.179-10.734 19.83-.289-22.547-.289-22.547-14.5 16.308-18.72 12.57 10.222-20.099 10.222-20.099-20.418 7.702-22.417 2.431 18.392-13.046 18.392-13.046-21.659-2.669-20.979-8.265c.679-5.596 22.348-3.005 22.348-3.005s-17.937-12.429-14.735-17.068 21.184 7.725 21.184 7.725-10.107-19.341-5.115-21.961c4.991-2.62 15.168 16.685 15.168 16.685s.036-21.823 5.674-21.823z" fill="#dd544f"/><circle cx="340.069" cy="130.405" fill="#ffc305" r="12.94"/><path d="m85.738 447.413c45.209 40.808 105.099 65.661 170.798 65.661 65.51 0 125.685-24.849 171.116-65.966v-40.212c0-18.068-6.365-34.647-16.965-47.63-92.955 61.878-214.234 61.395-306.737-1.47l-.006.002c-11.344 13.186-18.206 30.336-18.206 49.098z" fill="#dd544f"/><path d="m410.688 359.265c-71.991 37.137-142.073 49.036-210.232 35.483-10.307-2.05-17.636 34.733-27.855 31.519l-2.934 46.726c.113.031.216.066.33.096 21.56 4.772 25.105-14.952 45.376-12.181 20.339 2.031 19.187 22.032 41.152 22.423 21.967-.39 20.811-20.392 41.154-22.421 20.274-2.769 23.819 16.956 45.382 12.182 21.419-5.554 15.614-24.727 35.138-31.556 19.321-7.571 27.416 10.769 47.623.831 19.92-10.719 9.716-27.956 27.541-39.588z" fill="#d80a61"/><path d="m103.95 357.795-44.24 44.983c17.819 11.63 7.619 28.867 27.535 39.584 20.205 9.939 28.298-8.403 47.617-.832 19.522 6.831 13.719 26.001 35.135 31.557l30.459-78.34c-32.61-6.483-64.779-18.79-96.506-36.952z" fill="#a51f6b"/></g></g></svg>